<svg id="Capa_1" enable-background="new 0 0 512 512" height="512" viewBox="0 0 512 512" width="512" xmlns="http://www.w3.org/2000/svg"><g><g><path d="m208.947 75.57 46.221 19.717 19.716-19.717-32.968-32.968z" fill="#dfdde2"/></g><g><path d="m125.75 40.081 46.221 19.716 19.328-19.329-32.968-32.968z" fill="#dfdde2"/></g><g><path d="m230.862 211.905 89.014-89.015-235.724-100.554-39.562 39.562z" fill="#eab14d"/></g><g><path d="m210.725 195.689 20.136 16.216 89.015-89.015-30.722-13.105c-23.777 25.939-50.906 55.672-78.429 85.904z" fill="#e49542"/></g><g><path d="m436.43 303.053-19.717-46.221 19.717-19.716 32.968 32.968z" fill="#dfdde2"/></g><g><path d="m471.919 386.25-19.716-46.221 19.328-19.328 32.969 32.968z" fill="#dfdde2"/></g><g><path d="m112.999 450.102 54.398-54.398 21.43 87.366-21.43 21.43z" fill="#eab14d"/></g><g><path d="m175.578 429.055-8.181-33.352-54.398 54.398 18.692 18.692c9.926-8.98 25.177-22.786 43.887-39.738z" fill="#e49542"/></g><g><path d="m300.095 281.138 89.015-89.015 100.554 235.725-39.562 39.562z" fill="#eab14d"/></g><g><path d="m402.215 222.845-13.105-30.722-89.015 89.015 16.216 20.136c30.232-27.522 59.965-54.652 85.904-78.429z" fill="#e49542"/></g><g><path d="m61.898 399.001 54.398-54.398-87.366-21.43-21.43 21.43z" fill="#eab14d"/></g><g><path d="m43.206 380.309 18.692 18.692 54.398-54.398-33.352-8.181c-16.951 18.71-30.757 33.961-39.738 43.887z" fill="#e49542"/></g><g><path d="m464.938 47.062c-22.76-22.76-60.167-22.254-82.421 0-32.335 32.335-281.47 307.541-324.89 355.53-3.611 3.992-3.456 10.111.351 13.917l18.756 18.756 18.756 18.756c3.806 3.806 9.925 3.962 13.917.351 47.989-43.42 323.195-292.555 355.53-324.89 22.255-22.252 22.761-59.66.001-82.42z" fill="#f9f6f9"/></g><g><path d="m464.938 47.062c-2.969-2.969-6.193-5.533-9.595-7.714 14.534 22.673 11.636 53.476-7.714 72.827-35.441 35.441-362.653 331.333-362.653 331.333l10.514 10.514c3.806 3.806 9.925 3.962 13.917.351 47.989-43.42 323.195-292.555 355.53-324.89 22.255-22.253 22.761-59.661.001-82.421z" fill="#dfdde2"/></g><g><path d="m476.928 111.802c9.216-21.239 5.459-47.291-11.991-64.74-17.449-17.449-43.501-21.207-64.74-11.991z" fill="#818181"/></g><g><path d="m459.62 94.494 17.308 17.308c9.216-21.239 5.459-47.291-11.991-64.74-2.969-2.969-6.192-5.532-9.594-7.712 10.634 16.588 11.925 37.52 4.277 55.144z" fill="#595959"/></g><g><path d="m406.885 134.786c1.465 1.464 3.385 2.197 5.304 2.197s3.839-.732 5.304-2.197c5.163-5.163 8.124-12.503 8.124-20.139s-2.962-14.976-8.124-20.139c-10.918-10.917-29.361-10.917-40.279 0-2.929 2.929-2.929 7.678 0 10.606 2.93 2.929 7.678 2.929 10.607 0 4.987-4.988 14.074-4.989 19.065 0 2.37 2.371 3.73 5.845 3.73 9.532s-1.36 7.162-3.731 9.533c-2.929 2.93-2.929 7.679 0 10.607z"/><path d="m512 353.669c0-1.989-.79-3.897-2.196-5.303l-32.969-32.968c-1.407-1.407-3.314-2.197-5.304-2.197s-3.896.79-5.304 2.197l-11.48 11.481-9.43-22.106 29.385-29.385c1.406-1.406 2.196-3.314 2.196-5.303s-.79-3.897-2.196-5.303l-32.969-32.969c-2.93-2.929-7.678-2.929-10.607 0l-11.869 11.869-18.73-43.908c34.696-31.851 60.962-56.235 69.714-64.986 12.228-12.228 19.002-28.667 19.077-46.292.074-17.761-6.7-34.358-19.077-46.735-12.378-12.377-28.977-19.194-46.735-19.077-17.625.075-34.065 6.849-46.293 19.077-6.925 6.925-33.537 35.714-64.818 69.786l-44.076-18.802 11.869-11.87c2.929-2.929 2.929-7.678 0-10.606l-32.968-32.971c-1.407-1.407-3.314-2.197-5.304-2.197s-3.896.79-5.304 2.197l-29.385 29.385-22.106-9.43 11.482-11.482c1.406-1.406 2.196-3.314 2.196-5.303s-.79-3.897-2.196-5.303l-32.968-32.968c-2.93-2.929-7.678-2.929-10.607 0l-28.998 28.996-36.936-15.756c-2.817-1.203-6.082-.569-8.246 1.595l-39.562 39.563c-1.505 1.505-2.3 3.58-2.186 5.706s1.127 4.103 2.785 5.438l70.953 57.14c3.225 2.598 7.946 2.088 10.546-1.137 2.598-3.226 2.089-7.947-1.138-10.545l-7.836-6.311 10.578-10.578c2.929-2.929 2.929-7.678 0-10.606-2.93-2.929-7.678-2.929-10.607 0l-11.721 11.72-44.861-36.127 30.072-30.072 215.77 92.042c-24.349 26.554-50.402 55.062-71.634 78.323l-52.795-42.517 10.586-10.586c2.929-2.929 2.929-7.678 0-10.606-2.93-2.929-7.678-2.929-10.607 0l-11.729 11.729-17.895-14.411c-3.227-2.599-7.947-2.089-10.546 1.137-2.598 3.226-2.089 7.947 1.138 10.545l81.719 65.809c-18.791 20.596-32.075 35.181-33.961 37.252-2.789 3.063-2.567 7.806.495 10.595s7.806 2.567 10.595-.495c1.72-1.888 172.171-189.032 190.814-207.675 3.286-3.286 6.961-6.004 10.883-8.18l69.139 69.138c-2.212 3.945-4.952 7.601-8.208 10.857-8.966 8.967-36.61 34.605-72.935 67.93-.038.032-.072.067-.109.1-93.244 85.544-243.576 221.642-282.215 256.601-1.025.93-2.599.889-3.581-.093l-13.453-13.453 59.81-59.81c2.929-2.929 2.929-7.678 0-10.606-2.93-2.929-7.678-2.929-10.607 0l-59.809 59.809-13.456-13.452c-.98-.981-1.021-2.554-.092-3.582 16.332-18.051 59.763-66.032 110.199-121.583 2.784-3.067 2.556-7.81-.511-10.594-3.069-2.784-7.809-2.556-10.595.511-19.254 21.207-37.481 41.303-53.576 59.06l-77.989-19.129c-2.548-.625-5.235.126-7.091 1.981l-21.429 21.43c-1.406 1.406-2.196 3.314-2.196 5.303s.79 3.897 2.196 5.303l48.872 48.871c-5.243 6.938-4.658 16.772 1.606 23.036l13.453 13.453-12.005 12.005c-2.929 2.929-2.929 7.678 0 10.606 1.465 1.464 3.385 2.197 5.304 2.197s3.839-.732 5.304-2.197l12.005-12.005 13.452 13.452c3.433 3.433 7.937 5.162 12.45 5.162 3.723 0 7.451-1.182 10.588-3.553l48.869 48.869c1.465 1.464 3.385 2.197 5.304 2.197 1.92 0 3.839-.732 5.304-2.197l21.43-21.43c1.854-1.854 2.605-4.543 1.98-7.09l-19.13-77.989c35.151-31.86 79.13-71.767 122.37-111.122l65.768 81.668c1.482 1.84 3.654 2.796 5.847 2.796 1.65 0 3.313-.543 4.699-1.659 3.227-2.598 3.735-7.319 1.138-10.545l-14.412-17.896 11.729-11.729c2.929-2.929 2.929-7.678 0-10.606-2.93-2.929-7.678-2.929-10.607 0l-10.584 10.584-42.465-52.731c27.601-25.135 54.554-49.733 78.341-71.533l91.97 215.605-30.072 30.072-36.127-44.861 11.723-11.723c2.929-2.929 2.929-7.678 0-10.606-2.93-2.929-7.678-2.929-10.607 0l-10.578 10.578-6.31-7.836c-2.599-3.225-7.319-3.737-10.546-1.137-3.227 2.598-3.735 7.319-1.138 10.545l57.14 70.954c1.336 1.658 3.313 2.671 5.439 2.785.135.007.269.011.402.011 1.983 0 3.894-.787 5.304-2.197l39.563-39.563c2.165-2.165 2.796-5.429 1.595-8.246l-15.756-36.936 28.997-28.997c1.405-1.402 2.195-3.31 2.195-5.299zm-270.084-300.461 22.361 22.362-10.829 10.83-31.35-13.373zm-83.585-35.102 22.362 22.362-10.442 10.442-31.35-13.373zm256.018 20.511c15.989-2.896 33.216 1.681 45.285 13.749 9.526 9.527 14.741 22.335 14.684 36.065-.013 3.157-.315 6.259-.869 9.286zm-383.103 292.847 66.008 16.191c-14.753 16.282-27.16 29.985-36.163 39.932l-42.985-42.984zm149.291 149.29-13.14 13.139-42.984-42.984c10.146-9.183 23.829-21.572 39.932-36.163zm255.893-233.032 22.362 22.362-19.818 19.817-13.373-31.35zm38.033 125.377-13.373-31.35 10.441-10.442 22.362 22.362z"/></g></g></svg>